<svg xmlns="http://www.w3.org/2000/svg" width="35" height="35" fill="none"><path fill="#453A36" d="M17.5 35C27.165 35 35 27.165 35 17.5S27.165 0 17.5 0 0 7.835 0 17.5 7.835 35 17.5 35"/><path fill="#fff" fill-rule="evenodd" d="M7.912 17.31c5.1-2.214 8.495-3.686 10.2-4.4 4.852-2.025 5.872-2.375 6.528-2.39.146 0 .466.03.685.204.175.146.218.335.247.481.03.146.059.452.03.685-.263 2.769-1.4 9.486-1.982 12.575-.248 1.311-.729 1.749-1.195 1.792-1.02.088-1.792-.67-2.768-1.311-1.545-1.006-2.405-1.632-3.905-2.623-1.735-1.137-.613-1.763.378-2.783.263-.262 4.736-4.342 4.823-4.706.015-.044.015-.22-.087-.306-.102-.088-.248-.059-.364-.03-.16.03-2.609 1.661-7.373 4.882-.7.48-1.326.714-1.895.7-.626-.015-1.821-.35-2.724-.642-1.093-.35-1.968-.54-1.895-1.151.044-.32.481-.641 1.297-.976" clip-rule="evenodd"/></svg>