<svg xmlns="http://www.w3.org/2000/svg" width="35" height="35" fill="none"><path fill="#453A36" d="M17.5 0C7.835 0 0 7.835 0 17.5S7.835 35 17.5 35 35 27.165 35 17.5 27.165 0 17.5 0m-5.728 2.844c-1.704 1.854-3.054 4.52-3.88 7.656H3.402a15.85 15.85 0 0 1 8.371-7.656M1.75 17.5c0-1.846.347-3.604.934-5.25h4.819A28 28 0 0 0 7 17.5c0 1.835.188 3.59.502 5.25H2.684c-.587-1.646-.934-3.404-.934-5.25m1.65 7h4.493c.825 3.135 2.175 5.802 3.88 7.656A15.85 15.85 0 0 1 3.4 24.5m13.225 8.667c-2.995-.564-5.597-3.981-6.929-8.667h6.929zm0-10.417H9.279a26.35 26.35 0 0 1 0-10.5h7.346zm0-12.25H9.696c1.332-4.686 3.934-8.103 6.929-8.667zm14.974 0h-4.491c-.826-3.135-2.176-5.802-3.88-7.656a15.86 15.86 0 0 1 8.371 7.656M18.375 1.833c2.995.564 5.597 3.981 6.929 8.667h-6.929zm0 10.417h7.346a26.35 26.35 0 0 1 0 10.5h-7.346zm0 20.917V24.5h6.929c-1.332 4.686-3.934 8.103-6.929 8.667m4.853-1.011c1.704-1.855 3.053-4.52 3.88-7.656h4.491a15.85 15.85 0 0 1-8.371 7.656m4.27-9.406c.314-1.66.502-3.415.502-5.25s-.188-3.59-.502-5.25h4.819c.586 1.646.933 3.404.933 5.25s-.347 3.604-.934 5.25z"/></svg>